<svg preserveAspectRatio="none" width="100%" height="100%" overflow="visible" style="display: block;" viewBox="0 0 13.3333 14.6667" fill="none" xmlns="http://www.w3.org/2000/svg">
<path id="Vector" d="M1.3 12L0.0333333 7.53333C0 7.4 0.0138889 7.24444 0.075 7.06667C0.136111 6.88889 0.266667 6.76667 0.466667 6.7L1.33333 6.4V3.33333C1.33333 2.96667 1.46389 2.65278 1.725 2.39167C1.98611 2.13056 2.3 2 2.66667 2H4.66667V0H8.66667V2H10.6667C11.0333 2 11.3472 2.13056 11.6083 2.39167C11.8694 2.65278 12 2.96667 12 3.33333V6.4L12.8667 6.7C13.1 6.78889 13.2389 6.91944 13.2833 7.09167C13.3278 7.26389 13.3333 7.41111 13.3 7.53333L12.0333 12C11.4778 12 10.9722 11.8694 10.5167 11.6083C10.0611 11.3472 9.66667 11.0333 9.33333 10.6667C9 11.0333 8.60556 11.3472 8.15 11.6083C7.69444 11.8694 7.2 12 6.66667 12C6.13333 12 5.63889 11.8694 5.18333 11.6083C4.72778 11.3472 4.33333 11.0333 4 10.6667C3.66667 11.0333 3.27222 11.3472 2.81667 11.6083C2.36111 11.8694 1.85556 12 1.3 12ZM0 14.6667V13.3333H1.33333C1.8 13.3333 2.26111 13.2611 2.71667 13.1167C3.17222 12.9722 3.6 12.7556 4 12.4667C4.4 12.7556 4.82778 12.9667 5.28333 13.1C5.73889 13.2333 6.2 13.3 6.66667 13.3C7.13333 13.3 7.59444 13.2333 8.05 13.1C8.50556 12.9667 8.93333 12.7556 9.33333 12.4667C9.73333 12.7556 10.1611 12.9722 10.6167 13.1167C11.0722 13.2611 11.5333 13.3333 12 13.3333H13.3333V14.6667H12C11.5333 14.6667 11.0778 14.6111 10.6333 14.5C10.1889 14.3889 9.75555 14.2222 9.33333 14C8.91111 14.2222 8.475 14.3889 8.025 14.5C7.575 14.6111 7.12222 14.6667 6.66667 14.6667C6.21111 14.6667 5.75833 14.6111 5.30833 14.5C4.85833 14.3889 4.42222 14.2222 4 14C3.57778 14.2222 3.14444 14.3889 2.7 14.5C2.25556 14.6111 1.8 14.6667 1.33333 14.6667H0ZM2.66667 5.96667L6.66667 4.66667L10.6667 5.96667V3.33333H2.66667V5.96667Z" fill="var(--fill-0, #3773AD)"/>
</svg>
