<svg preserveAspectRatio="none" width="100%" height="100%" overflow="visible" style="display: block;" viewBox="0 0 16 16" fill="none" xmlns="http://www.w3.org/2000/svg">
<g id="Sale">
<path id="Vector" fill-rule="evenodd" clip-rule="evenodd" d="M6.39493 2.13351C6.23259 2.27187 6.15141 2.34105 6.06471 2.39916C5.86597 2.53236 5.64278 2.62481 5.40807 2.67115C5.30567 2.69137 5.19935 2.69985 4.98672 2.71681C4.45247 2.75945 4.18533 2.78077 3.96247 2.85949C3.44701 3.04155 3.04155 3.44701 2.85949 3.96247C2.78077 4.18533 2.75945 4.45247 2.71681 4.98672C2.69985 5.19935 2.69137 5.30567 2.67115 5.40807C2.62481 5.64278 2.53236 5.86597 2.39916 6.06471C2.34105 6.15141 2.27187 6.23258 2.13351 6.39493C1.78589 6.80287 1.61207 7.0068 1.51015 7.22007C1.27439 7.71333 1.27439 8.28667 1.51015 8.77993C1.61207 8.9932 1.78589 9.19713 2.13351 9.60507C2.27185 9.7674 2.34105 9.8486 2.39916 9.93527C2.53236 10.134 2.62481 10.3572 2.67115 10.5919C2.69137 10.6943 2.69985 10.8007 2.71681 11.0133C2.75945 11.5475 2.78077 11.8147 2.85949 12.0375C3.04155 12.553 3.44701 12.9585 3.96247 13.1405C4.18533 13.2192 4.45247 13.2405 4.98672 13.2832C5.19935 13.3001 5.30567 13.3087 5.40807 13.3289C5.64278 13.3752 5.86597 13.4677 6.06471 13.6009C6.15141 13.6589 6.23258 13.7281 6.39493 13.8665C6.80287 14.2141 7.0068 14.3879 7.22007 14.4899C7.71333 14.7256 8.28667 14.7256 8.77993 14.4899C8.9932 14.3879 9.19713 14.2141 9.60507 13.8665C9.7674 13.7281 9.8486 13.6589 9.93527 13.6009C10.134 13.4677 10.3572 13.3752 10.5919 13.3289C10.6943 13.3087 10.8007 13.3001 11.0133 13.2832C11.5475 13.2405 11.8147 13.2192 12.0375 13.1405C12.553 12.9585 12.9585 12.553 13.1405 12.0375C13.2192 11.8147 13.2405 11.5475 13.2832 11.0133C13.3001 10.8007 13.3087 10.6943 13.3289 10.5919C13.3752 10.3572 13.4677 10.134 13.6009 9.93527C13.6589 9.8486 13.7281 9.7674 13.8665 9.60507C14.2141 9.19713 14.3879 8.9932 14.4899 8.77993C14.7256 8.28667 14.7256 7.71333 14.4899 7.22007C14.3879 7.0068 14.2141 6.80287 13.8665 6.39493C13.7281 6.23258 13.6589 6.15141 13.6009 6.06471C13.4677 5.86597 13.3752 5.64278 13.3289 5.40807C13.3087 5.30567 13.3001 5.19935 13.2832 4.98672C13.2405 4.45247 13.2192 4.18533 13.1405 3.96247C12.9585 3.44701 12.553 3.04155 12.0375 2.85949C11.8147 2.78077 11.5475 2.75945 11.0133 2.71681C10.8007 2.69985 10.6943 2.69137 10.5919 2.67115C10.3572 2.62481 10.134 2.53236 9.93527 2.39916C9.8486 2.34105 9.7674 2.27187 9.60507 2.13351C9.19713 1.78589 8.9932 1.61207 8.77993 1.51015C8.28667 1.27439 7.71333 1.27439 7.22007 1.51015C7.0068 1.61207 6.80287 1.78589 6.39493 2.13351ZM10.5539 5.44639C10.7658 5.65828 10.7658 6.00182 10.5539 6.21371L6.21335 10.5543C6.00147 10.7662 5.65793 10.7662 5.44604 10.5543C5.23415 10.3424 5.23415 9.99887 5.44604 9.787L9.7866 5.44639C9.99853 5.23451 10.3421 5.23451 10.5539 5.44639ZM10.532 9.80893C10.532 10.2085 10.2081 10.5323 9.8086 10.5323C9.409 10.5323 9.08513 10.2085 9.08513 9.80893C9.08513 9.4094 9.409 9.08547 9.8086 9.08547C10.2081 9.08547 10.532 9.4094 10.532 9.80893ZM6.19141 6.9152C6.59095 6.9152 6.91487 6.59131 6.91487 6.19177C6.91487 5.79223 6.59095 5.46833 6.19141 5.46833C5.79187 5.46833 5.46798 5.79223 5.46798 6.19177C5.46798 6.59131 5.79187 6.9152 6.19141 6.9152Z" fill="var(--fill-0, #F3F6FA)"/>
</g>
</svg>
