<svg
        viewBox="0 0 24 24"
        width="24"
        height="24"
        fill="none"
        xmlns="http://www.w3.org/2000/svg">
    <path
      d="M12.0078 14.4C13.3358 14.4 14.4665 13.9307 15.3998 12.992C16.3331 12.0533 16.7998 10.92 16.7998 9.59199C16.7998 8.26399 16.3305 7.13332 15.3918 6.19999C14.4531 5.26665 13.3198 4.79999 11.9918 4.79999C10.6638 4.79999 9.53314 5.26932 8.5998 6.20799C7.66647 7.14665 7.1998 8.27999 7.1998 9.60799C7.1998 10.936 7.66914 12.0667 8.6078 13C9.54647 13.9333 10.6798 14.4 12.0078 14.4ZM3.1998 23.2C2.5398 23.2 1.9748 22.965 1.5048 22.495C1.0348 22.025 0.799805 21.46 0.799805 20.8V3.19999C0.799805 2.53999 1.0348 1.97499 1.5048 1.50499C1.9748 1.03499 2.5398 0.799988 3.1998 0.799988H20.7998C21.4598 0.799988 22.0248 1.03499 22.4948 1.50499C22.9648 1.97499 23.1998 2.53999 23.1998 3.19999V20.8C23.1998 21.46 22.9648 22.025 22.4948 22.495C22.0248 22.965 21.4598 23.2 20.7998 23.2H3.1998ZM3.1998 20.8H20.7998V19.0333C19.5331 18.0333 18.1498 17.2778 16.6498 16.7667C15.1498 16.2555 13.5998 16 11.9998 16C10.3998 16 8.8498 16.2555 7.3498 16.7667C5.8498 17.2778 4.46647 18.0333 3.1998 19.0333V20.8Z"
      fill="#3773AD"/>
  </svg> 