<svg width="23" height="21" viewBox="0 0 23 21" fill="none" xmlns="http://www.w3.org/2000/svg">
<g id="Add Photo _ 20">
<path id="Vector" d="M3.20309 3.75753V0.900391H5.10785V3.75753H7.96499V5.6623H5.10785V8.51944H3.20309V5.6623H0.345947V3.75753H3.20309ZM6.06023 9.47182V6.61468H8.91738V3.75753H15.584L17.3269 5.6623H20.3459C21.3936 5.6623 22.2507 6.51944 22.2507 7.56706V18.9956C22.2507 20.0432 21.3936 20.9004 20.3459 20.9004H5.10785C4.06023 20.9004 3.20309 20.0432 3.20309 18.9956V9.47182H6.06023ZM12.7269 18.0432C15.3555 18.0432 17.4888 15.9099 17.4888 13.2813C17.4888 10.6528 15.3555 8.51944 12.7269 8.51944C10.0983 8.51944 7.96499 10.6528 7.96499 13.2813C7.96499 15.9099 10.0983 18.0432 12.7269 18.0432ZM9.67928 13.2813C9.67928 14.9671 11.0412 16.329 12.7269 16.329C14.4126 16.329 15.7745 14.9671 15.7745 13.2813C15.7745 11.5956 14.4126 10.2337 12.7269 10.2337C11.0412 10.2337 9.67928 11.5956 9.67928 13.2813Z" fill="#0F559A"/>
</g>
</svg>
