<svg xmlns="http://www.w3.org/2000/svg" xmlns:xlink="http://www.w3.org/1999/xlink" width="29" height="33" viewBox="0 0 29 33">
  <defs>
    <rect id="background-a" width="28.966" height="33"/>
  </defs>
  <g fill="none" fill-rule="evenodd">
    <mask id="background-b" fill="#fff">
      <use xlink:href="#background-a"/>
    </mask>
    <rect width="27.966" height="32" x=".5" y=".5" stroke="#8AB33F"/>
    <path stroke="#8AB33F" stroke-linecap="square" stroke-width=".5" d="M-1.08626025 30.215709L28.4795672-1.40975378M-2.31816973 26.5666172L27.2476578-5.05884564M-3.55007921 22.9175253L26.0157483-8.7079375M-3.55007921 18.0520695L26.0157483-13.5733933M-4.78198869 14.4029776L24.7838388-17.2224852M-6.01389817 10.7538858L23.5519293-20.871577M-6.01389817 5.88842995L23.5519293-25.7370329M3.84137766 39.9466207L33.4072052 8.32115786M2.60946819 36.2975288L32.1752957 4.67206599M6.30519662 47.2448044L35.8710241 15.6193416M8.76901558 49.6775323L38.3348431 18.0520695M5.07328714 43.5957125L34.6391146 11.9702497M1.37755871 32.6484369L30.9433862 1.02297413" mask="url(#background-b)"/>
  </g>
</svg>
