<svg width="20" height="20" viewBox="0 0 20 20" fill="none" xmlns="http://www.w3.org/2000/svg">
<path d="M17.8125 7.1875L16.6667 6.66667L17.8125 6.14583L18.3333 5L18.8542 6.14583L20 6.66667L18.8542 7.1875L18.3333 8.33333L17.8125 7.1875ZM15.0417 3.29167L13.3333 2.5L15.0417 1.70833L15.8333 0L16.625 1.70833L18.3333 2.5L16.625 3.29167L15.8333 5L15.0417 3.29167ZM7.5 18.3333C7.04167 18.3333 6.64944 18.1703 6.32333 17.8442C5.99667 17.5175 5.83333 17.125 5.83333 16.6667H9.16667C9.16667 17.125 9.00361 17.5175 8.6775 17.8442C8.35083 18.1703 7.95833 18.3333 7.5 18.3333ZM5 15.8333C4.76389 15.8333 4.56583 15.7533 4.40583 15.5933C4.24639 15.4339 4.16667 15.2361 4.16667 15C4.16667 14.7639 4.24639 14.5661 4.40583 14.4067C4.56583 14.2467 4.76389 14.1667 5 14.1667H10C10.2361 14.1667 10.4342 14.2467 10.5942 14.4067C10.7536 14.5661 10.8333 14.7639 10.8333 15C10.8333 15.2361 10.7536 15.4339 10.5942 15.5933C10.4342 15.7533 10.2361 15.8333 10 15.8333H5ZM4.375 13.3333C3.41667 12.7639 2.65639 12 2.09417 11.0417C1.53139 10.0833 1.25 9.04167 1.25 7.91667C1.25 6.18056 1.85778 4.705 3.07333 3.49C4.28833 2.27444 5.76389 1.66667 7.5 1.66667C9.23611 1.66667 10.7117 2.27444 11.9267 3.49C13.1422 4.705 13.75 6.18056 13.75 7.91667C13.75 9.04167 13.4689 10.0833 12.9067 11.0417C12.3439 12 11.5833 12.7639 10.625 13.3333H4.375Z" fill="black"/>
</svg>
