<svg width="18" height="18" viewBox="0 0 18 18" fill="none" xmlns="http://www.w3.org/2000/svg">
<rect width="18" height="18" fill="#10559A"/>
<path d="M11.7577 13.0486C11.7593 13.0686 11.762 13.0902 11.7637 13.1108C11.8183 11.8486 11.894 10.449 11.9049 9.78784L11.94 9.33068C11.94 9.33068 11.9011 8.9893 12.2928 8.8957L16.6945 7.79256C16.681 7.78932 16.6615 7.78823 16.6453 7.78553H16.6426C16.6339 7.78391 16.6247 7.78228 16.615 7.7812C16.5988 7.77958 16.582 7.7785 16.563 7.77525C16.5414 7.77417 16.5181 7.77092 16.4954 7.76984C16.4749 7.76822 16.4543 7.76713 16.4327 7.76551C16.4067 7.76389 16.3796 7.76281 16.3515 7.76118C16.3282 7.7601 16.3066 7.75848 16.2823 7.75686C16.252 7.75686 16.2184 7.75577 16.187 7.75577C16.1611 7.75415 16.1362 7.75415 16.1091 7.75415H16.0004C15.9728 7.75577 15.9457 7.75577 15.9165 7.75577C15.876 7.75686 15.8321 7.75848 15.7905 7.7601C15.7613 7.76118 15.7342 7.76281 15.7034 7.76389C15.6541 7.76551 15.6022 7.76984 15.5497 7.77255C15.5237 7.77525 15.4994 7.77525 15.4724 7.7785C15.3923 7.78391 15.309 7.79148 15.2235 7.80014L12.4048 8.20807C12.4048 8.20807 11.5911 8.30166 11.5289 8.77127C11.5289 8.77127 11.5245 8.79724 11.5202 8.85134C11.5191 8.87731 11.5159 8.91193 11.5132 8.95251C11.5121 8.98226 11.5105 9.01581 11.5088 9.0553C11.5034 9.16946 11.4991 9.31824 11.4991 9.50327C11.498 9.79812 11.5078 10.1844 11.5397 10.6659C11.544 10.7352 11.5494 10.806 11.5559 10.8785C11.5613 10.9608 11.5689 11.0457 11.5759 11.1344C11.5759 11.1344 11.5819 11.1891 11.5905 11.2789C11.5916 11.2973 11.5932 11.3195 11.5959 11.3438C11.6003 11.393 11.6057 11.4526 11.6122 11.5159C11.6241 11.6311 11.6365 11.7685 11.6511 11.9173C11.6798 12.2268 11.715 12.5882 11.7463 12.9295" fill="white"/>
<path d="M16.8706 7.60478C16.8706 7.60478 16.4254 6.44213 15.6733 5.39851C15.6733 5.39851 15.6501 5.31627 15.497 5.37416L11.0476 6.98369C11.0476 6.98369 10.2031 7.19469 9.81572 6.87819L9.40346 6.5617C9.40346 6.5617 8.8527 6.14944 8.6298 6.12672C8.6298 6.12672 8.40258 6.09209 8.21755 6.18623C8.21755 6.18623 7.62892 6.41616 7.73766 7.16061C7.73766 7.16061 7.78365 7.41056 8.03414 7.58314L8.18617 7.67836L6.50035 7.69297C6.50035 7.69297 6.10703 7.72219 6.22551 8.03435C6.22551 8.03435 6.40459 8.44336 7.21287 8.96869C7.21287 8.96869 7.4401 9.12938 7.8015 9.1072L0 17.9999H11.5167C11.5167 17.9999 11.5789 16.8384 11.6454 15.4474C11.5167 14.2518 11.1813 12.9982 11.1813 12.9982C10.954 12.2072 10.6332 10.6496 10.6332 10.6496C10.367 9.28736 10.4931 8.61379 10.4931 8.61379C10.6332 7.92561 11.573 7.78548 11.573 7.78548C13.5293 7.37756 16.4416 7.56583 16.4416 7.56583C16.7224 7.57449 16.8306 7.62534 16.8722 7.66862C16.8793 7.64969 16.8793 7.62805 16.8706 7.60533M8.98742 7.05132C8.89274 7.38513 8.57841 7.58801 8.28463 7.5047C7.9914 7.42138 7.83018 7.08324 7.9254 6.74997C8.02007 6.41616 8.33495 6.21328 8.62764 6.2966C8.92087 6.37992 9.0821 6.71805 8.98742 7.05132Z" fill="white"/>
</svg>
