<svg width="13" height="12" viewBox="0 0 13 12" fill="none" xmlns="http://www.w3.org/2000/svg">
<rect x="0.5" width="12" height="12" fill="#10559A"/>
<path d="M8.33847 8.69905C8.33956 8.71239 8.34136 8.72682 8.34244 8.74052C8.37887 7.89906 8.42937 6.96598 8.43658 6.52523L8.46002 6.22045C8.46002 6.22045 8.43405 5.99287 8.69519 5.93047L11.6297 5.19504C11.6207 5.19288 11.6077 5.19216 11.5969 5.19035H11.5951C11.5893 5.18927 11.5831 5.18819 11.5767 5.18747C11.5658 5.18639 11.5547 5.18566 11.542 5.1835C11.5276 5.18278 11.5121 5.18061 11.4969 5.17989C11.4832 5.17881 11.4695 5.17809 11.4551 5.17701C11.4378 5.17593 11.4198 5.1752 11.401 5.17412C11.3855 5.1734 11.3711 5.17232 11.3548 5.17124C11.3346 5.17124 11.3123 5.17052 11.2914 5.17052C11.274 5.16943 11.2575 5.16943 11.2394 5.16943H11.1669C11.1485 5.17052 11.1305 5.17052 11.111 5.17052C11.084 5.17124 11.0548 5.17232 11.027 5.1734C11.0075 5.17412 10.9895 5.1752 10.9689 5.17593C10.9361 5.17701 10.9015 5.17989 10.8665 5.1817C10.8492 5.1835 10.8329 5.1835 10.8149 5.18566C10.7615 5.18927 10.706 5.19432 10.649 5.20009L8.76985 5.47204C8.76985 5.47204 8.22738 5.53444 8.18591 5.84751C8.18591 5.84751 8.18302 5.86482 8.18014 5.90089C8.17941 5.9182 8.17725 5.94129 8.17545 5.96834C8.17472 5.98818 8.17364 6.01054 8.17256 6.03687C8.16895 6.11297 8.16607 6.21216 8.16607 6.33551C8.16535 6.53208 8.17184 6.78961 8.19312 7.11061C8.19601 7.15678 8.19961 7.20403 8.20394 7.25236C8.20755 7.30718 8.2126 7.36381 8.21729 7.42296C8.21729 7.42296 8.22125 7.45939 8.22702 7.51926C8.22775 7.53152 8.22883 7.54631 8.23063 7.56254C8.23352 7.59537 8.23712 7.63504 8.24145 7.67724C8.24939 7.75406 8.25768 7.84568 8.26742 7.94486C8.28654 8.15117 8.30998 8.39211 8.3309 8.6197" fill="white"/>
<path d="M11.7471 5.06969C11.7471 5.06969 11.4502 4.29459 10.9489 3.59884C10.9489 3.59884 10.9334 3.54402 10.8313 3.58261L7.86508 4.65563C7.86508 4.65563 7.30206 4.7963 7.04381 4.5853L6.76897 4.3743C6.76897 4.3743 6.4018 4.09946 6.2532 4.08432C6.2532 4.08432 6.10172 4.06123 5.97836 4.12399C5.97836 4.12399 5.58595 4.27728 5.65844 4.77358C5.65844 4.77358 5.6891 4.94021 5.85609 5.05527L5.95745 5.11875L4.83357 5.12848C4.83357 5.12848 4.57135 5.14796 4.65034 5.35607C4.65034 5.35607 4.76973 5.62875 5.30858 5.97897C5.30858 5.97897 5.46007 6.08609 5.701 6.0713L0.5 11.9998H8.17779C8.17779 11.9998 8.21927 11.2254 8.26363 10.2981C8.17779 9.501 7.95417 8.66531 7.95417 8.66531C7.80268 8.138 7.5888 7.0996 7.5888 7.0996C7.41135 6.19141 7.49538 5.74236 7.49538 5.74236C7.5888 5.28358 8.2153 5.19016 8.2153 5.19016C9.51952 4.91821 11.4611 5.04372 11.4611 5.04372C11.6482 5.0495 11.7204 5.0834 11.7482 5.11225C11.7528 5.09963 11.7528 5.0852 11.7471 5.07005M6.49161 4.70072C6.42849 4.92326 6.21894 5.05851 6.02309 5.00297C5.8276 4.94742 5.72012 4.722 5.7836 4.49982C5.84672 4.27728 6.05663 4.14202 6.25176 4.19757C6.44725 4.25311 6.55473 4.47854 6.49161 4.70072Z" fill="white"/>
</svg>
