<svg xmlns="http://www.w3.org/2000/svg" width="32" height="32" viewBox="0 0 32 32" fill="none">
  <mask id="mask0_14003_222936" style="mask-type:alpha" maskUnits="userSpaceOnUse" x="0" y="0" width="32" height="32">
    <rect width="32" height="32" fill="#D9D9D9"/>
  </mask>
  <g mask="url(#mask0_14003_222936)">
    <path fill-rule="evenodd" clip-rule="evenodd" d="M4.8 4.80078V7.04078H7.03917L11.0697 15.5416L9.55824 18.2744C8.74094 19.7752 9.81574 21.6008 11.5175 21.6008H24.9525V19.3608H11.5175L12.7491 17.1208H21.09C21.9296 17.1208 22.6686 16.6616 23.0492 15.9672L27.0573 8.69838C27.4716 7.95918 26.9342 7.04078 26.0833 7.04078H9.51345L8.46104 4.80078H4.8ZM11.5175 22.7208C10.286 22.7208 9.28954 23.7288 9.28954 24.9608C9.28954 26.1928 10.286 27.2008 11.5175 27.2008C12.7491 27.2008 13.7567 26.1928 13.7567 24.9608C13.7567 23.7288 12.7491 22.7208 11.5175 22.7208ZM20.4854 24.9608C20.4854 23.7288 21.4818 22.7208 22.7134 22.7208C23.9449 22.7208 24.9525 23.7288 24.9525 24.9608C24.9525 26.1928 23.9449 27.2008 22.7134 27.2008C21.4818 27.2008 20.4854 26.1928 20.4854 24.9608Z" fill="#3773AD"/>
  </g>
</svg>