<svg width="20" height="20" viewBox="0 0 20 20" fill="none" xmlns="http://www.w3.org/2000/svg">
<path d="M10 20C8.02219 20 6.08879 19.4135 4.4443 18.3147C2.79981 17.2159 1.51809 15.6541 0.761209 13.8268C0.00433292 11.9996 -0.1937 9.98891 0.192152 8.0491C0.578004 6.10929 1.53041 4.32746 2.92894 2.92894C4.32746 1.53041 6.10929 0.578005 8.0491 0.192152C9.98891 -0.193701 11.9996 0.0043335 13.8268 0.761209C15.6541 1.51809 17.2159 2.79981 18.3147 4.4443C19.4135 6.08879 20 8.02219 20 10C19.997 12.6512 18.9424 15.193 17.0677 17.0677C15.193 18.9424 12.6512 19.997 10 20V20ZM11.0714 5C11.0714 4.71584 10.9585 4.44332 10.7576 4.24239C10.5567 4.04146 10.2842 3.92858 10 3.92858C9.71584 3.92858 9.44332 4.04146 9.24239 4.24239C9.04146 4.44332 8.92857 4.71584 8.92857 5V10C8.92857 10.2842 9.04146 10.5567 9.24239 10.7576C9.44332 10.9585 9.71584 11.0714 10 11.0714C10.2842 11.0714 10.5567 10.9585 10.7576 10.7576C10.9585 10.5567 11.0714 10.2842 11.0714 10V5ZM10 12.8571C9.71746 12.8571 9.44126 12.9409 9.20633 13.0979C8.9714 13.2549 8.7883 13.478 8.68017 13.739C8.57205 14.0001 8.54376 14.2873 8.59888 14.5644C8.654 14.8415 8.79006 15.0961 8.98985 15.2959C9.18964 15.4957 9.44419 15.6317 9.7213 15.6868C9.99842 15.742 10.2857 15.7137 10.5467 15.6055C10.8077 15.4974 11.0308 15.3143 11.1878 15.0794C11.3448 14.8445 11.4286 14.5683 11.4286 14.2857C11.4286 13.9068 11.2781 13.5435 11.0102 13.2756C10.7422 13.0077 10.3789 12.8571 10 12.8571Z" fill="#E02738"/>
</svg>
