<svg xmlns="http://www.w3.org/2000/svg" width="20" height="20" viewBox="0 0 20 20" fill="none">
	<path d="M8.62492 14.1666L13.3333 9.45825L12.1249 8.24992L8.60409 11.7708L6.85409 10.0208L5.66659 11.2083L8.62492 14.1666ZM5.41659 16.6666C4.1527 16.6666 3.07284 16.2291 2.177 15.3541C1.28117 14.4791 0.833252 13.4096 0.833252 12.1458C0.833252 11.0624 1.15964 10.0971 1.81242 9.24992C2.4652 8.4027 3.31936 7.86103 4.37492 7.62492C4.72214 6.34714 5.41659 5.31242 6.45825 4.52075C7.49992 3.72909 8.68047 3.33325 9.99992 3.33325C11.6249 3.33325 13.0034 3.89922 14.1353 5.03117C15.2673 6.16311 15.8333 7.54158 15.8333 9.16658C16.7916 9.2777 17.5867 9.69089 18.2187 10.4062C18.8506 11.1214 19.1666 11.9583 19.1666 12.9166C19.1666 13.9583 18.802 14.8437 18.0728 15.5728C17.3437 16.302 16.4583 16.6666 15.4166 16.6666H5.41659Z" fill="#5F90C1"/>
</svg>
