<svg xmlns="http://www.w3.org/2000/svg" width="14" height="16" viewBox="0 0 14 16" fill="none">
	<path d="M1.6335 12.667L0.366829 8.20033C0.333496 8.06699 0.347385 7.91144 0.408496 7.73366C0.469607 7.55588 0.600163 7.43366 0.800163 7.36699L1.66683 7.06699V4.00033C1.66683 3.63366 1.79738 3.31977 2.0585 3.05866C2.31961 2.79755 2.6335 2.66699 3.00016 2.66699H5.00016V0.666992H9.00016V2.66699H11.0002C11.3668 2.66699 11.6807 2.79755 11.9418 3.05866C12.2029 3.31977 12.3335 3.63366 12.3335 4.00033V7.06699L13.2002 7.36699C13.4335 7.45588 13.5724 7.58644 13.6168 7.75866C13.6613 7.93088 13.6668 8.0781 13.6335 8.20033L12.3668 12.667C11.8113 12.667 11.3057 12.5364 10.8502 12.2753C10.3946 12.0142 10.0002 11.7003 9.66683 11.3337C9.3335 11.7003 8.93905 12.0142 8.4835 12.2753C8.02794 12.5364 7.5335 12.667 7.00016 12.667C6.46683 12.667 5.97238 12.5364 5.51683 12.2753C5.06127 12.0142 4.66683 11.7003 4.3335 11.3337C4.00016 11.7003 3.60572 12.0142 3.15016 12.2753C2.69461 12.5364 2.18905 12.667 1.6335 12.667ZM0.333496 15.3337V14.0003H1.66683C2.1335 14.0003 2.59461 13.9281 3.05016 13.7837C3.50572 13.6392 3.9335 13.4225 4.3335 13.1337C4.7335 13.4225 5.16127 13.6337 5.61683 13.767C6.07238 13.9003 6.5335 13.967 7.00016 13.967C7.46683 13.967 7.92794 13.9003 8.3835 13.767C8.83905 13.6337 9.26683 13.4225 9.66683 13.1337C10.0668 13.4225 10.4946 13.6392 10.9502 13.7837C11.4057 13.9281 11.8668 14.0003 12.3335 14.0003H13.6668V15.3337H12.3335C11.8668 15.3337 11.4113 15.2781 10.9668 15.167C10.5224 15.0559 10.0891 14.8892 9.66683 14.667C9.24461 14.8892 8.8085 15.0559 8.3585 15.167C7.9085 15.2781 7.45572 15.3337 7.00016 15.3337C6.54461 15.3337 6.09183 15.2781 5.64183 15.167C5.19183 15.0559 4.75572 14.8892 4.3335 14.667C3.91127 14.8892 3.47794 15.0559 3.0335 15.167C2.58905 15.2781 2.1335 15.3337 1.66683 15.3337H0.333496ZM3.00016 6.63366L7.00016 5.33366L11.0002 6.63366V4.00033H3.00016V6.63366Z" fill="#3773AD"/>
</svg>
