<svg xmlns="http://www.w3.org/2000/svg" width="24" height="24" viewBox="0 0 24 24">
  <g fill="none" fill-rule="evenodd">
    <path stroke="#8AB33F" stroke-linejoin="round" d="M11.5604703,17.4200981 L6.22638135,12.063501"/>
    <path fill="#85B348" fill-rule="nonzero" d="M23.1213281,2.6360625 L21.3639844,0.87871875 C20.1924375,-0.292828125 18.2929687,-0.292875 17.1213281,0.87871875 L0.60178125,17.3982188 L0.007078125,22.7505938 C-0.072515625,23.467125 0.533015625,24.0726094 1.24945312,23.9929688 L6.60182812,23.3982656 L23.121375,6.87871875 C24.292875,5.707125 24.292875,3.80760938 23.1213281,2.6360625 Z M18.6590156,9.21965625 L8.15625,19.7224219 L8.15625,18.09375 L5.90625,18.09375 L5.90625,15.84375 L4.27757812,15.84375 L14.7803437,5.34098438 L18.6590156,9.21965625 Z M5.91314062,21.9655313 L3.14775,22.2727969 L1.72720312,20.85225 L2.03446875,18.0868594 L2.96507812,17.15625 L4.59375,17.15625 L4.59375,19.40625 L6.84375,19.40625 L6.84375,21.0349219 L5.91314062,21.9655313 Z M22.0606406,5.81803125 L19.7196562,8.15901563 L15.8409844,4.28034375 L18.1819687,1.93935938 C18.7681406,1.3531875 19.7170312,1.35309375 20.3032969,1.93935938 L22.0606406,3.69670313 C22.6468594,4.28292188 22.6469062,5.23171875 22.0606406,5.81803125 Z"/>
  </g>
</svg>
