<svg width="16" height="16" viewBox="0 0 16 16" fill="none" xmlns="http://www.w3.org/2000/svg">
<g id="invisible-1--disable-eye-eyeball-hide-off-view">
<path id="Vector" d="M9.60178 9.50108C10.4308 8.67205 10.4308 7.32793 9.60178 6.49892C8.77276 5.66989 7.42864 5.66989 6.59961 6.49892" stroke="black" stroke-width="1.14" stroke-linecap="round" stroke-linejoin="round"/>
<path id="Vector 1859" d="M1.20117 1.10072L14.9997 14.8993" stroke="black" stroke-width="1.14" stroke-linecap="round" stroke-linejoin="round"/>
<path id="Vector_2" d="M4.28809 4.18777C5.39395 3.34328 6.69974 2.69286 8.10032 2.69286C11.0673 2.69286 13.609 5.61178 14.7256 7.11105C14.9019 7.35485 14.9996 7.67159 14.9996 8C14.9996 8.3284 14.9019 8.64515 14.7256 8.88895C14.1361 9.68048 13.1494 10.8677 11.9125 11.8122" stroke="black" stroke-width="1.14" stroke-linecap="round" stroke-linejoin="round"/>
<path id="Vector_3" d="M2.48373 5.87714C2.07768 6.32925 1.73718 6.75923 1.47516 7.11105C1.2988 7.35485 1.20117 7.67159 1.20117 8C1.20117 8.32841 1.2988 8.64515 1.47516 8.88895C2.59178 10.3882 5.13342 13.3071 8.10046 13.3071C8.63447 13.3071 9.15472 13.2126 9.65536 13.0488" stroke="black" stroke-width="1.14" stroke-linecap="round" stroke-linejoin="round"/>
</g>
</svg>
