<svg width="38" height="34" viewBox="0 0 38 34" fill="none" xmlns="http://www.w3.org/2000/svg">
<g id="Union" filter="url(#filter0_d_10901_36153)">
<path fill-rule="evenodd" clip-rule="evenodd" d="M15.599 6.26061C16.7196 6.34157 17.8873 6.88617 19.005 7.98838C20.1225 6.88648 21.2891 6.34291 22.4087 6.26376C23.6722 6.17442 24.7893 6.68355 25.5975 7.48683C27.1864 9.06618 27.6854 11.924 25.7137 13.8897C25.7071 13.8964 25.7002 13.9028 25.6933 13.9091L19.3886 19.6026C19.1709 19.7991 18.8391 19.7991 18.6214 19.6026L12.3167 13.9091C12.3098 13.9028 12.3029 13.8964 12.2963 13.8897C10.3143 11.9138 10.8106 9.05561 12.4048 7.47749C13.215 6.67548 14.3343 6.16926 15.599 6.26061Z" fill="white"/>
</g>
<defs>
<filter id="filter0_d_10901_36153" x="0.9" y="0.15" width="36.2007" height="33.7" filterUnits="userSpaceOnUse" color-interpolation-filters="sRGB">
<feFlood flood-opacity="0" result="BackgroundImageFix"/>
<feColorMatrix in="SourceAlpha" type="matrix" values="0 0 0 0 0 0 0 0 0 0 0 0 0 0 0 0 0 0 127 0" result="hardAlpha"/>
<feOffset dy="4"/>
<feGaussianBlur stdDeviation="5.05"/>
<feComposite in2="hardAlpha" operator="out"/>
<feColorMatrix type="matrix" values="0 0 0 0 0 0 0 0 0 0 0 0 0 0 0 0 0 0 0.52 0"/>
<feBlend mode="normal" in2="BackgroundImageFix" result="effect1_dropShadow_10901_36153"/>
<feBlend mode="normal" in="SourceGraphic" in2="effect1_dropShadow_10901_36153" result="shape"/>
</filter>
</defs>
</svg>
