<svg width="18" height="18" viewBox="0 0 18 18" fill="none" xmlns="http://www.w3.org/2000/svg">
<path d="M8.16699 12.8633H9.83366V7.86328H8.16699V12.8633ZM9.00033 6.19661C9.23644 6.19661 9.43435 6.11675 9.59408 5.95703C9.7538 5.79731 9.83366 5.59939 9.83366 5.36328C9.83366 5.12717 9.7538 4.92925 9.59408 4.76953C9.43435 4.60981 9.23644 4.52995 9.00033 4.52995C8.76421 4.52995 8.5663 4.60981 8.40658 4.76953C8.24685 4.92925 8.16699 5.12717 8.16699 5.36328C8.16699 5.59939 8.24685 5.79731 8.40658 5.95703C8.5663 6.11675 8.76421 6.19661 9.00033 6.19661ZM9.00033 17.0299C7.84755 17.0299 6.76421 16.8112 5.75033 16.3737C4.73644 15.9362 3.85449 15.3424 3.10449 14.5924C2.35449 13.8424 1.76074 12.9605 1.32324 11.9466C0.885742 10.9327 0.666992 9.84939 0.666992 8.69661C0.666992 7.54384 0.885742 6.4605 1.32324 5.44661C1.76074 4.43273 2.35449 3.55078 3.10449 2.80078C3.85449 2.05078 4.73644 1.45703 5.75033 1.01953C6.76421 0.582031 7.84755 0.363281 9.00033 0.363281C10.1531 0.363281 11.2364 0.582031 12.2503 1.01953C13.2642 1.45703 14.1462 2.05078 14.8962 2.80078C15.6462 3.55078 16.2399 4.43273 16.6774 5.44661C17.1149 6.4605 17.3337 7.54384 17.3337 8.69661C17.3337 9.84939 17.1149 10.9327 16.6774 11.9466C16.2399 12.9605 15.6462 13.8424 14.8962 14.5924C14.1462 15.3424 13.2642 15.9362 12.2503 16.3737C11.2364 16.8112 10.1531 17.0299 9.00033 17.0299Z" fill="white"/>
</svg>
