<svg width="16" height="17" viewBox="0 0 16 17" fill="none" xmlns="http://www.w3.org/2000/svg">
<path d="M7.33325 11.832H8.66658V7.83203H7.33325V11.832ZM7.99992 6.4987C8.18881 6.4987 8.34714 6.43481 8.47492 6.30703C8.6027 6.17925 8.66658 6.02092 8.66658 5.83203C8.66658 5.64314 8.6027 5.48481 8.47492 5.35703C8.34714 5.22925 8.18881 5.16536 7.99992 5.16536C7.81103 5.16536 7.6527 5.22925 7.52492 5.35703C7.39714 5.48481 7.33325 5.64314 7.33325 5.83203C7.33325 6.02092 7.39714 6.17925 7.52492 6.30703C7.6527 6.43481 7.81103 6.4987 7.99992 6.4987ZM7.99992 15.1654C7.0777 15.1654 6.21103 14.9904 5.39992 14.6404C4.58881 14.2904 3.88325 13.8154 3.28325 13.2154C2.68325 12.6154 2.20825 11.9098 1.85825 11.0987C1.50825 10.2876 1.33325 9.42092 1.33325 8.4987C1.33325 7.57648 1.50825 6.70981 1.85825 5.8987C2.20825 5.08759 2.68325 4.38203 3.28325 3.78203C3.88325 3.18203 4.58881 2.70703 5.39992 2.35703C6.21103 2.00703 7.0777 1.83203 7.99992 1.83203C8.92214 1.83203 9.78881 2.00703 10.5999 2.35703C11.411 2.70703 12.1166 3.18203 12.7166 3.78203C13.3166 4.38203 13.7916 5.08759 14.1416 5.8987C14.4916 6.70981 14.6666 7.57648 14.6666 8.4987C14.6666 9.42092 14.4916 10.2876 14.1416 11.0987C13.7916 11.9098 13.3166 12.6154 12.7166 13.2154C12.1166 13.8154 11.411 14.2904 10.5999 14.6404C9.78881 14.9904 8.92214 15.1654 7.99992 15.1654Z" fill="black"/>
</svg>
