<svg width="16" height="17" viewBox="0 0 16 17" fill="none" xmlns="http://www.w3.org/2000/svg">
<g id="Lightbulb_16">
<path id="Vector" d="M7.9967 15.1501C7.6657 15.1501 7.38353 15.0326 7.1502 14.7976C6.91686 14.5626 6.8002 14.2801 6.8002 13.9501H9.2002C9.2002 14.2834 9.08236 14.5668 8.8467 14.8001C8.61103 15.0334 8.3277 15.1501 7.9967 15.1501ZM5.6002 13.1501V11.9501H10.4002V13.1501H5.6002ZM5.3502 11.1501C4.66131 10.7279 4.13075 10.1584 3.75853 9.44176C3.38631 8.7251 3.2002 7.96121 3.2002 7.1501C3.2002 5.81676 3.66686 4.68343 4.6002 3.7501C5.53353 2.81676 6.66686 2.3501 8.0002 2.3501C9.33353 2.3501 10.4669 2.81676 11.4002 3.7501C12.3335 4.68343 12.8002 5.81676 12.8002 7.1501C12.8002 7.96121 12.6141 8.7251 12.2419 9.44176C11.8696 10.1584 11.3391 10.7279 10.6502 11.1501H5.3502Z" fill="#0F559A"/>
</g>
</svg>
