<svg width="11" height="15" viewBox="0 0 11 15" fill="none" xmlns="http://www.w3.org/2000/svg">
<path fill-rule="evenodd" clip-rule="evenodd" d="M9.5 4.83332L8.83334 4.83332L8.83334 3.49999C8.83334 1.65999 7.34 0.166658 5.5 0.166657C3.66001 0.166657 2.16667 1.65999 2.16667 3.49999L2.16667 4.83332L1.5 4.83332C0.766671 4.83332 0.166671 5.43332 0.166671 6.16666L0.16667 12.8333C0.166669 13.5667 0.766669 14.1667 1.5 14.1667L9.5 14.1667C10.2333 14.1667 10.8333 13.5667 10.8333 12.8333L10.8333 6.16666C10.8333 5.43332 10.2333 4.83332 9.5 4.83332ZM5.5 10.8333C4.76667 10.8333 4.16667 10.2333 4.16667 9.49999C4.16667 8.76666 4.76667 8.16666 5.5 8.16666C6.23334 8.16666 6.83334 8.76666 6.83334 9.49999C6.83334 10.2333 6.23334 10.8333 5.5 10.8333ZM3.5 3.49999L3.5 4.83332L7.5 4.83332L7.5 3.49999C7.5 2.39332 6.60667 1.49999 5.50001 1.49999C4.39334 1.49999 3.5 2.39332 3.5 3.49999Z" fill="black" fill-opacity="0.25"/>
</svg>
