<svg width="21" height="20" viewBox="0 0 21 20" fill="none" xmlns="http://www.w3.org/2000/svg">
	<path d="M19.775 16.8942L11.9179 1.17987C11.7394 0.825156 11.466 0.526999 11.1279 0.318661C10.7899 0.110323 10.4007 0 10.0036 0C9.60653 0 9.21728 0.110323 8.87926 0.318661C8.54124 0.526999 8.26775 0.825156 8.08931 1.17987L0.23217 16.8942C0.066123 17.2199 -0.0132175 17.5829 0.00179546 17.9482C0.0168085 18.3136 0.125669 18.6688 0.317885 18.9799C0.512672 19.2892 0.78239 19.5443 1.10204 19.7216C1.42169 19.8989 1.78093 19.9927 2.14646 19.9942H17.8607C18.2263 19.9927 18.5855 19.8989 18.9052 19.7216C19.2248 19.5443 19.4945 19.2892 19.6893 18.9799C19.8815 18.6688 19.9904 18.3136 20.0054 17.9482C20.0204 17.5829 19.9411 17.2199 19.775 16.8942ZM8.93217 7.13701C8.93217 6.85285 9.04505 6.58033 9.24598 6.3794C9.44692 6.17846 9.71944 6.06558 10.0036 6.06558C10.2878 6.06558 10.5603 6.17846 10.7612 6.3794C10.9621 6.58033 11.075 6.85285 11.075 7.13701V11.4227C11.075 11.7069 10.9621 11.9794 10.7612 12.1803C10.5603 12.3813 10.2878 12.4942 10.0036 12.4942C9.71944 12.4942 9.44692 12.3813 9.24598 12.1803C9.04505 11.9794 8.93217 11.7069 8.93217 11.4227V7.13701ZM10.0036 17.137C9.72105 17.137 9.44485 17.0532 9.20993 16.8963C8.975 16.7393 8.7919 16.5162 8.68377 16.2551C8.57565 15.9941 8.54736 15.7069 8.60248 15.4297C8.6576 15.1526 8.79366 14.8981 8.99345 14.6983C9.19324 14.4985 9.44778 14.3624 9.7249 14.3073C10.002 14.2522 10.2893 14.2805 10.5503 14.3886C10.8113 14.4967 11.0344 14.6798 11.1914 14.9148C11.3484 15.1497 11.4322 15.4259 11.4322 15.7084C11.4322 16.0873 11.2817 16.4507 11.0138 16.7186C10.7458 16.9865 10.3825 17.137 10.0036 17.137Z" fill="#FFC400"/>
</svg>
