<svg xmlns="http://www.w3.org/2000/svg" width="16" height="16" viewBox="0 0 16 16" fill="none">
	<path d="M2.63337 12.666L1.36671 8.19935C1.33337 8.06602 1.34726 7.91046 1.40837 7.73268C1.46949 7.5549 1.60004 7.43268 1.80004 7.36602L2.66671 7.06602V3.99935C2.66671 3.63268 2.79726 3.31879 3.05837 3.05768C3.31949 2.79657 3.63337 2.66602 4.00004 2.66602H6.00004V0.666016H10V2.66602H12C12.3667 2.66602 12.6806 2.79657 12.9417 3.05768C13.2028 3.31879 13.3334 3.63268 13.3334 3.99935V7.06602L14.2 7.36602C14.4334 7.45491 14.5723 7.58546 14.6167 7.75768C14.6612 7.9299 14.6667 8.07713 14.6334 8.19935L13.3667 12.666C12.8112 12.666 12.3056 12.5355 11.85 12.2743C11.3945 12.0132 11 11.6993 10.6667 11.3327C10.3334 11.6993 9.93893 12.0132 9.48337 12.2743C9.02782 12.5355 8.53337 12.666 8.00004 12.666C7.46671 12.666 6.97226 12.5355 6.51671 12.2743C6.06115 12.0132 5.66671 11.6993 5.33337 11.3327C5.00004 11.6993 4.6056 12.0132 4.15004 12.2743C3.69448 12.5355 3.18893 12.666 2.63337 12.666ZM1.33337 15.3327V13.9993H2.66671C3.13337 13.9993 3.59449 13.9271 4.05004 13.7827C4.5056 13.6382 4.93337 13.4216 5.33337 13.1327C5.73337 13.4216 6.16115 13.6327 6.61671 13.766C7.07226 13.8993 7.53337 13.966 8.00004 13.966C8.46671 13.966 8.92782 13.8993 9.38337 13.766C9.83893 13.6327 10.2667 13.4216 10.6667 13.1327C11.0667 13.4216 11.4945 13.6382 11.95 13.7827C12.4056 13.9271 12.8667 13.9993 13.3334 13.9993H14.6667V15.3327H13.3334C12.8667 15.3327 12.4112 15.2771 11.9667 15.166C11.5223 15.0549 11.0889 14.8882 10.6667 14.666C10.2445 14.8882 9.80837 15.0549 9.35837 15.166C8.90837 15.2771 8.4556 15.3327 8.00004 15.3327C7.54448 15.3327 7.09171 15.2771 6.64171 15.166C6.19171 15.0549 5.7556 14.8882 5.33337 14.666C4.91115 14.8882 4.47782 15.0549 4.03337 15.166C3.58893 15.2771 3.13337 15.3327 2.66671 15.3327H1.33337ZM4.00004 6.63268L8.00004 5.33268L12 6.63268V3.99935H4.00004V6.63268Z" fill="black"/>
</svg>
