<svg width="25" height="24" viewBox="0 0 25 24" fill="none" xmlns="http://www.w3.org/2000/svg">
<path fill-rule="evenodd" clip-rule="evenodd" d="M4.42543 14.0687C5.34541 17.6703 8.61171 20.3333 12.5 20.3333C15.1637 20.3333 17.5355 19.0836 19.061 17.1384L15.503 13.5803L15.2083 13.2858L14.9137 13.5803L12.7083 15.7858L8.00296 11.0803L7.70833 10.7858L7.41371 11.0803L4.42543 14.0687ZM12.5 2C6.97715 2 2.5 6.47715 2.5 12C2.5 17.5228 6.97715 22 12.5 22C18.0228 22 22.5 17.5228 22.5 12C22.5 6.47715 18.0228 2 12.5 2ZM15.2083 6.79167C14.0578 6.79167 13.125 7.72441 13.125 8.875C13.125 10.0256 14.0578 10.9583 15.2083 10.9583C16.3589 10.9583 17.2917 10.0256 17.2917 8.875C17.2917 7.72441 16.3589 6.79167 15.2083 6.79167Z" fill="#3773AD"/>
</svg>
