<svg xmlns="http://www.w3.org/2000/svg" width="63" height="61" viewBox="0 0 63 61" fill="none">
	<path fill-rule="evenodd" clip-rule="evenodd" d="M13.6954 2.17822C12.4571 2.17822 11.2396 2.48851 10.1574 3.07941C9.05444 3.63319 8.12342 4.46973 7.46304 5.50111C6.79255 6.54817 6.42662 7.75598 6.40492 8.99332L6.40461 51.9686L6.40492 52.0061C6.42662 53.2435 6.79255 54.4513 7.46304 55.4983C8.12342 56.5297 9.05444 57.3662 10.1574 57.92C11.2396 58.5108 12.4571 58.8211 13.6954 58.8211C14.9522 58.8211 16.1877 58.5013 17.282 57.893C17.3074 57.8791 17.3326 57.8643 17.3574 57.849L52.6809 36.354C53.7769 35.8093 54.7021 34.9807 55.3557 33.9564C56.0324 32.8967 56.3916 31.6706 56.3916 30.4191C56.3916 29.1676 56.0324 27.9415 55.3557 26.8817C54.7012 25.8564 53.7747 25.0271 52.6773 24.4823L17.3511 3.14629C17.3283 3.13252 17.3053 3.11916 17.282 3.10621C16.1877 2.49789 14.9522 2.17822 13.6954 2.17822Z" fill="white"/>
</svg>