<svg width="17" height="18" viewBox="0 0 17 18" fill="none" xmlns="http://www.w3.org/2000/svg">
<path d="M8.54166 14.8333L10.9167 12.4792L8.54166 10.125L7.66666 11L8.56249 11.8958C8.1736 11.9097 7.79513 11.8472 7.42707 11.7083C7.05902 11.5694 6.72916 11.3542 6.43749 11.0625C6.15971 10.7847 5.94791 10.4653 5.80207 10.1042C5.65624 9.74306 5.58332 9.38194 5.58332 9.02083C5.58332 8.78472 5.61457 8.54861 5.67707 8.3125C5.73957 8.07639 5.82638 7.84722 5.93749 7.625L5.02082 6.70833C4.78471 7.05556 4.6111 7.42361 4.49999 7.8125C4.38888 8.20139 4.33332 8.59722 4.33332 9C4.33332 9.52778 4.43749 10.0486 4.64582 10.5625C4.85416 11.0764 5.15971 11.5347 5.56249 11.9375C5.96527 12.3403 6.41666 12.6424 6.91666 12.8438C7.41666 13.0451 7.93055 13.1528 8.45832 13.1667L7.66666 13.9583L8.54166 14.8333ZM11.9792 11.2917C12.2153 10.9444 12.3889 10.5764 12.5 10.1875C12.6111 9.79861 12.6667 9.40278 12.6667 9C12.6667 8.47222 12.566 7.94792 12.3646 7.42708C12.1632 6.90625 11.8611 6.44444 11.4583 6.04167C11.0555 5.63889 10.6007 5.34028 10.0937 5.14583C9.5868 4.95139 9.06944 4.85417 8.54166 4.85417L9.33332 4.04167L8.45832 3.16667L6.08332 5.52083L8.45832 7.875L9.33332 7L8.41666 6.08333C8.79166 6.08333 9.1736 6.15625 9.56249 6.30208C9.95138 6.44792 10.2847 6.65972 10.5625 6.9375C10.8403 7.21528 11.0521 7.53472 11.1979 7.89583C11.3437 8.25694 11.4167 8.61806 11.4167 8.97917C11.4167 9.21528 11.3854 9.45139 11.3229 9.6875C11.2604 9.92361 11.1736 10.1528 11.0625 10.375L11.9792 11.2917ZM8.49999 17.3333C7.34721 17.3333 6.26388 17.1146 5.24999 16.6771C4.2361 16.2396 3.35416 15.6458 2.60416 14.8958C1.85416 14.1458 1.26041 13.2639 0.822907 12.25C0.385407 11.2361 0.166656 10.1528 0.166656 9C0.166656 7.84722 0.385407 6.76389 0.822907 5.75C1.26041 4.73611 1.85416 3.85417 2.60416 3.10417C3.35416 2.35417 4.2361 1.76042 5.24999 1.32292C6.26388 0.885416 7.34721 0.666666 8.49999 0.666666C9.65277 0.666666 10.7361 0.885416 11.75 1.32292C12.7639 1.76042 13.6458 2.35417 14.3958 3.10417C15.1458 3.85417 15.7396 4.73611 16.1771 5.75C16.6146 6.76389 16.8333 7.84722 16.8333 9C16.8333 10.1528 16.6146 11.2361 16.1771 12.25C15.7396 13.2639 15.1458 14.1458 14.3958 14.8958C13.6458 15.6458 12.7639 16.2396 11.75 16.6771C10.7361 17.1146 9.65277 17.3333 8.49999 17.3333Z" fill="#0F559A"/>
</svg>
