<svg width="16" height="18" viewBox="0 0 16 18" fill="none" xmlns="http://www.w3.org/2000/svg">
<path d="M5.50033 14.8327H10.5003L8.85449 12.6869L7.64616 14.1244L6.83366 13.041L5.50033 14.8327ZM4.66699 17.3327C4.20866 17.3327 3.8163 17.1695 3.48991 16.8431C3.16352 16.5167 3.00033 16.1244 3.00033 15.666V8.99935C3.00033 8.54102 3.16352 8.14866 3.48991 7.82227C3.8163 7.49588 4.20866 7.33268 4.66699 7.33268H11.3337C11.792 7.33268 12.1844 7.49588 12.5107 7.82227C12.8371 8.14866 13.0003 8.54102 13.0003 8.99935V15.666C13.0003 16.1244 12.8371 16.5167 12.5107 16.8431C12.1844 17.1695 11.792 17.3327 11.3337 17.3327H4.66699ZM4.66699 15.666H11.3337V8.99935H4.66699V15.666ZM0.916992 5.66602C1.44477 4.15213 2.35796 2.94032 3.65658 2.0306C4.95519 1.12088 6.4031 0.666016 8.00033 0.666016C9.13921 0.666016 10.2191 0.909071 11.2399 1.39518C12.2607 1.88129 13.1253 2.56879 13.8337 3.45768V0.666016H15.5003V5.66602H10.5003V3.99935H12.0837C11.542 3.45768 10.917 3.04449 10.2087 2.75977C9.50033 2.47504 8.76421 2.33268 8.00033 2.33268C6.87533 2.33268 5.83713 2.63129 4.88574 3.22852C3.93435 3.82574 3.2156 4.63824 2.72949 5.66602H0.916992Z" fill="white"/>
</svg>
