<?xml version="1.0" encoding="UTF-8" standalone="no"?><!DOCTYPE svg PUBLIC "-//W3C//DTD SVG 1.1//EN" "http://www.w3.org/Graphics/SVG/1.1/DTD/svg11.dtd"><svg width="100%" height="100%" viewBox="0 0 200 100" version="1.1" xmlns="http://www.w3.org/2000/svg" xmlns:xlink="http://www.w3.org/1999/xlink" xml:space="preserve" xmlns:serif="http://www.serif.com/" style="fill-rule:evenodd;clip-rule:evenodd;stroke-linejoin:round;stroke-miterlimit:2;"><g><g><path d="M33.78,84.156l1.531,13.772l0.951,-0.105l0.928,-0.236l-3.41,-13.431Zm22.772,-5.782l-3.339,-13.449l-0.072,0.018l3.411,13.431Zm-24.896,6.018l-0.107,13.856l0.821,0.007l0.817,-0.091l-1.531,-13.772Zm-5.45,-1.899l-8.527,10.922l8.527,-10.922Zm-3.163,-4.826l13.418,-3.465l-0.008,-0.028l-13.41,3.493Zm-5.899,-22.654l-13.42,3.457l0.009,0.035l13.411,-3.492Zm0.266,-5.388l-13.014,-4.761l13.014,4.761Zm3.273,-4.288l-7.658,-11.548l-0.183,0.121l-0.179,0.127l8.02,11.3Zm9.911,0l-7.658,11.549l0.383,0.255l0.4,0.228l6.875,-12.032Zm4.13,2.36l7.239,-11.816l-0.18,-0.111l-0.184,-0.104l-6.875,12.031Zm1.996,0.399l2.139,13.691l-2.139,-13.691Zm1.527,-0.73l9.314,10.26l1.046,-0.949l0.832,-1.141l-11.192,-8.17Zm17.948,-17.645l7.979,11.33l-7.979,-11.33Zm43.397,-14.109l0.209,13.855l0.252,-0.004l0.251,-0.012l-0.712,-13.839Zm0.143,-0.008l0.09,-13.857l-0.389,-0.002l-0.388,0.019l0.687,13.84Zm0.265,0.002l-0.137,13.857l0.137,0.001l0.137,-0.001l-0.137,-13.857Zm0.265,-0.002l0.688,-13.84l-0.388,-0.019l-0.389,0.002l0.089,13.857Zm0.143,0.008l-0.712,13.839l0.251,0.012l0.252,0.004l0.209,-13.855Zm43.397,14.109l7.979,-11.33l-7.979,11.33Zm17.948,17.645l-11.192,8.17l0.832,1.14l1.046,0.95l9.314,-10.26Zm1.527,0.73l2.139,-13.691l-2.139,13.691Zm1.996,-0.399l-6.875,-12.031l-0.183,0.104l-0.18,0.111l7.238,11.816Zm4.13,-2.36l6.876,12.032l0.399,-0.228l0.383,-0.255l-7.658,-11.549Zm9.911,0l8.02,-11.3l-0.179,-0.127l-0.183,-0.121l-7.658,11.548Zm3.274,4.288l13.013,-4.761l-13.013,4.761Zm0.266,5.388l13.41,3.492l0.009,-0.036l-13.419,-3.456Zm-5.9,22.654l-13.41,-3.493l-0.007,0.028l13.417,3.465Zm-3.163,4.826l8.528,10.922l-8.528,-10.922Zm-5.45,1.899l-1.531,13.772l0.817,0.091l0.821,-0.007l-0.107,-13.856Zm-2.124,-0.236l-3.409,13.431l0.927,0.236l0.953,0.105l1.529,-13.772Zm-22.772,-5.782l3.411,-13.431l-0.072,-0.018l-3.339,13.449Zm-4.386,-2.604l-10.208,9.371l10.208,-9.371Zm-2.221,-4.593l-13.731,1.869l0.021,0.155l0.025,0.154l13.685,-2.178Zm0.792,-5.115l-12.524,-5.932l0,0.001l12.524,5.931Zm3.456,-3.852l-6.958,-11.984l-0.148,0.086l-0.146,0.09l7.252,11.808Zm3.657,-2.124l6.958,11.984l0.361,-0.21l0.347,-0.23l-7.666,-11.544Zm0.922,-0.92l-11.53,-7.686l11.53,7.686Zm0.494,-1.204l13.605,2.636l0.12,-0.618l0.062,-0.625l-13.787,-1.393Zm-0.147,-1.327l13.146,-4.382l0,-0.001l-13.146,4.383Zm-0.679,-1.15l-10.429,9.124l0.116,0.132l0.119,0.13l10.194,-9.386Zm-20.317,-15.529l6.066,-12.458l-6.066,12.458Zm-24.644,-6.411l0.775,-13.836l-0.284,-0.016l-0.286,-0.004l-0.205,13.856Zm-0.375,-0.005l0.118,-13.856l-0.118,-0.002l-0.118,0.002l0.118,13.856Zm-0.374,0.005l-0.206,-13.856l-0.286,0.004l-0.284,0.016l0.776,13.836Zm-24.644,6.411l6.066,12.46l-6.066,-12.46Zm-20.318,15.529l10.194,9.386l0.119,-0.13l0.116,-0.132l-10.429,-9.124Zm-0.679,1.15l-13.146,-4.383l-0,0.001l13.146,4.382Zm-0.147,1.327l-13.787,1.393l0.062,0.625l0.12,0.618l13.605,-2.636Zm0.494,1.204l-11.529,7.687l11.529,-7.687Zm0.922,0.92l-7.666,11.544l0.347,0.23l0.361,0.21l6.958,-11.984Zm3.657,2.124l7.252,-11.808l-0.146,-0.09l-0.148,-0.086l-6.958,11.984Zm3.456,3.852l12.524,-5.932l-12.524,5.932Zm0.792,5.115l13.685,2.178l0.024,-0.154l0.022,-0.155l-13.731,-1.869Zm-2.221,4.593l10.208,9.371l-10.208,-9.371Zm-23.749,21.817l22.773,-5.781l-6.821,-26.863l-22.771,5.781l6.819,26.863l0,-0Zm-4.002,0.577l2.123,-0.236l-3.06,-27.545l-2.124,0.236l3.061,27.545l-0,0Zm-15.509,-4.749c3.964,3.096 8.841,4.795 13.871,4.833l0.214,-27.713c1.078,0.008 2.122,0.372 2.972,1.035l-17.057,21.845l0,0Zm-8.053,-12.285c1.258,4.87 4.088,9.189 8.053,12.285l17.057,-21.845c0.849,0.664 1.456,1.589 1.726,2.632l-26.836,6.928l0,0Zm-5.892,-22.625l5.9,22.654l26.82,-6.985l-5.899,-22.653l-26.821,6.984l0,-0Zm0.663,-13.641c-1.597,4.362 -1.83,9.107 -0.672,13.606l26.839,-6.914c0.241,0.936 0.192,1.922 -0.141,2.829l-26.026,-9.521l-0,-0Zm8.267,-10.827c-3.789,2.689 -6.671,6.464 -8.267,10.827l26.026,9.521c-0.331,0.909 -0.931,1.694 -1.719,2.253l-16.04,-22.601Zm12.976,-4.051c-4.487,0 -8.874,1.323 -12.614,3.803l15.316,23.097c-0.801,0.531 -1.741,0.815 -2.702,0.815l-0,-27.715l-0,0Zm12.613,3.803c-3.74,-2.48 -8.127,-3.803 -12.613,-3.803l-0,27.715c-0.962,-0 -1.902,-0.284 -2.703,-0.815l15.316,-23.097l-0,-0Zm3.347,1.877l-4.13,-2.36l-13.75,24.063l4.13,2.36l13.75,-24.063l-0,0Zm-7.018,-1.261c2.558,-0.399 5.174,0.124 7.382,1.476l-14.478,23.632c3.401,2.085 7.433,2.89 11.374,2.274l-4.278,-27.382l-0,0Zm-5.649,2.701c1.572,-1.426 3.533,-2.37 5.649,-2.701l4.278,27.382c3.26,-0.509 6.282,-1.963 8.702,-4.161l-18.629,-20.52l0,0Zm20.507,18.431c4.066,-5.569 9.033,-10.471 14.735,-14.486l-15.958,-22.66c-8.189,5.767 -15.323,12.807 -21.161,20.804l22.384,16.342l0,-0Zm14.735,-14.486c10.446,-7.356 22.862,-11.391 35.627,-11.584l-0.418,-27.711c-18.333,0.277 -36.166,6.071 -51.167,16.636l15.958,22.659l0,0Zm34.874,-39.287c-0.056,0.003 -0.112,0.006 -0.168,0.009l1.424,27.678c0.04,-0.002 0.079,-0.004 0.119,-0.006l-1.375,-27.681l-0,-0Zm1.089,-0.014c-0.105,-0.001 -0.209,-0.002 -0.312,-0.003l-0.179,27.715c0.073,-0 0.145,0.001 0.217,0.002l0.274,-27.714l-0,-0Zm-0,27.713c0.072,-0 0.145,-0.001 0.217,-0.001l-0.178,-27.715c-0.104,0.001 -0.208,0.002 -0.313,0.003l0.274,27.713l-0,0Zm-0.56,-0.018c0.04,0.002 0.08,0.004 0.119,0.006l1.424,-27.678c-0.056,-0.003 -0.112,-0.007 -0.167,-0.009l-1.376,27.681l-0,0Zm52.207,-11.054c-15.001,-10.564 -32.833,-16.359 -51.167,-16.635l-0.418,27.711c12.765,0.193 25.182,4.228 35.627,11.584l15.958,-22.66l-0,0Zm21.161,20.804c-5.838,-7.997 -12.972,-15.037 -21.161,-20.804l-15.958,22.66c5.702,4.015 10.669,8.917 14.735,14.486l22.384,-16.342l-0,0Zm-20.506,18.431c2.42,2.197 5.441,3.652 8.702,4.161l4.278,-27.382c2.117,0.331 4.077,1.275 5.649,2.701l-18.629,20.52l-0,0Zm8.702,4.161c3.941,0.616 7.973,-0.189 11.374,-2.273l-14.477,-23.633c2.207,-1.352 4.823,-1.875 7.381,-1.476l-4.278,27.382l0,0Zm11.01,-2.058l4.131,-2.36l-13.751,-24.063l-4.13,2.36l13.75,24.063l0,-0Zm4.913,-2.843c-0.801,0.531 -1.741,0.815 -2.702,0.815l0,-27.715c-4.487,0 -8.874,1.323 -12.614,3.803l15.316,23.097l0,0Zm-2.702,0.815c-0.962,0 -1.901,-0.284 -2.703,-0.815l15.316,-23.097c-3.74,-2.48 -8.127,-3.803 -12.613,-3.803l0,27.715l0,0Zm-3.065,-1.063c-0.788,-0.559 -1.388,-1.344 -1.719,-2.252l26.026,-9.522c-1.595,-4.363 -4.478,-8.138 -8.267,-10.827l-16.04,22.601Zm-1.719,-2.253c-0.333,-0.907 -0.381,-1.893 -0.141,-2.829l26.839,6.913c0.202,-0.786 0.362,-1.579 0.48,-2.377c0.555,-3.767 0.166,-7.628 -1.152,-11.228l-26.026,9.521l-0,0Zm-0.132,-2.864l-5.898,22.653l26.819,6.985l5.9,-22.654l-26.821,-6.984l0,-0Zm-5.906,22.681c0.269,-1.043 0.876,-1.968 1.725,-2.632l17.057,21.845c3.965,-3.096 6.795,-7.415 8.053,-12.285l-26.835,-6.928l0,0Zm1.725,-2.632c0.85,-0.663 1.895,-1.027 2.972,-1.035l0.214,27.713c5.03,-0.038 9.907,-1.737 13.871,-4.833l-17.057,-21.845l0,0Zm4.609,-0.951l-2.124,-0.236l-3.059,27.545l2.122,0.236l3.061,-27.545l0,-0Zm-0.244,0.105l-22.771,-5.781l-6.821,26.863l22.773,5.781l6.819,-26.863l0,0Zm-22.843,-5.799c0.954,0.237 1.818,0.75 2.482,1.474l-20.415,18.742c3.014,3.284 6.929,5.609 11.257,6.682l6.676,-26.898l-0,0Zm2.482,1.474c0.665,0.724 1.102,1.629 1.258,2.599l-27.37,4.357c0.7,4.403 2.681,8.502 5.697,11.786l20.415,-18.742l0,-0Zm1.303,2.909c0.125,0.916 -0.02,1.85 -0.416,2.686l-25.046,-11.863c-1.904,4.019 -2.599,8.507 -2,12.915l27.462,-3.738l-0,-0Zm-0.416,2.686c-0.396,0.836 -1.026,1.54 -1.815,2.024l-14.504,-23.616c-3.791,2.328 -6.824,5.708 -8.728,9.728l25.047,11.864l0,0Zm-2.109,2.199l3.657,-2.123l-13.916,-23.968l-3.657,2.124l13.916,23.967l0,0Zm4.365,-2.563c1.897,-1.259 3.524,-2.883 4.785,-4.777l-23.059,-15.373c0.776,-1.165 1.776,-2.164 2.943,-2.938l15.331,23.088l0,0Zm4.785,-4.777c1.263,-1.893 2.136,-4.02 2.57,-6.255l-27.209,-5.271c0.266,-1.375 0.803,-2.683 1.58,-3.847l23.059,15.373Zm2.753,-7.498c0.242,-2.397 -0.027,-4.817 -0.788,-7.102l-26.293,8.764c-0.477,-1.43 -0.645,-2.946 -0.494,-4.447l27.574,2.785l0.001,-0Zm-0.788,-7.103c-0.763,-2.284 -2,-4.381 -3.631,-6.153l-20.389,18.772c-1.022,-1.11 -1.797,-2.423 -2.273,-3.854l26.293,-8.765Zm-3.396,-5.893c-6.888,-7.87 -15.279,-14.283 -24.681,-18.861l-12.133,24.918c6.079,2.959 11.504,7.105 15.955,12.193l20.858,-18.25l0.001,0Zm-24.681,-18.861c-9.362,-4.558 -19.539,-7.206 -29.935,-7.789l-1.55,27.671c6.721,0.377 13.299,2.089 19.352,5.036l12.133,-24.918l-0,-0Zm-31.203,19.899c0.096,0.001 0.191,0.003 0.287,0.003l0.411,-27.711c-0.153,-0.002 -0.307,-0.004 -0.462,-0.005l-0.236,27.713l-0,-0Zm-0,-27.713c-0.155,0.001 -0.308,0.003 -0.462,0.005l0.411,27.711c0.096,-0.001 0.192,-0.002 0.287,-0.003l-0.236,-27.713l-0,-0Zm-18.834,32.732c6.053,-2.947 12.631,-4.659 19.353,-5.036l-1.551,-27.671c-10.396,0.583 -20.573,3.23 -29.935,7.789l12.133,24.918l-0,-0Zm-15.955,12.193c4.451,-5.088 9.876,-9.234 15.955,-12.193l-12.133,-24.918c-9.402,4.578 -17.793,10.991 -24.681,18.861l20.858,18.25l0.001,0Zm2.038,-3.592c-0.476,1.431 -1.251,2.744 -2.273,3.854l-20.389,-18.772c-1.631,1.772 -2.868,3.869 -3.63,6.153l26.292,8.765Zm0.494,-4.447c0.151,1.501 -0.017,3.017 -0.494,4.447l-26.292,-8.764c-0.762,2.285 -1.031,4.705 -0.788,7.102l27.574,-2.785l-0,0Zm-1.763,-5.09c0.777,1.164 1.314,2.472 1.58,3.847l-27.209,5.271c0.434,2.235 1.307,4.362 2.57,6.255l23.059,-15.373Zm-2.943,-2.938c1.167,0.774 2.167,1.773 2.943,2.938l-23.059,15.373c1.262,1.894 2.888,3.518 4.785,4.777l15.331,-23.088l-0,0Zm2.95,1.684l-3.657,-2.123l-13.916,23.967l3.657,2.123l13.916,-23.967l0,0Zm9.022,9.904c-1.904,-4.02 -4.937,-7.4 -8.728,-9.728l-14.504,23.617c-0.788,-0.485 -1.419,-1.189 -1.815,-2.025l25.047,-11.864l-0,-0Zm1.999,12.916c0.599,-4.408 -0.094,-8.896 -1.999,-12.916l-25.047,11.864c-0.396,-0.836 -0.54,-1.77 -0.416,-2.686l27.462,3.738l-0,-0Zm-5.744,12.095c3.016,-3.284 4.997,-7.383 5.698,-11.786l-27.37,-4.357c0.155,-0.97 0.592,-1.875 1.257,-2.599l20.415,18.742l0,0Zm-11.256,6.682c4.327,-1.073 8.242,-3.398 11.256,-6.682l-20.415,-18.742c0.664,-0.724 1.528,-1.237 2.482,-1.474l6.677,26.898l-0,0Z" style="fill:#fff;fill-rule:nonzero;"/><path d="M56.552,78.374l-22.772,5.782l-2.124,0.236c-1.976,-0.016 -3.891,-0.683 -5.45,-1.899c-1.558,-1.217 -2.669,-2.913 -3.163,-4.826l-5.9,-22.654c-0.459,-1.782 -0.365,-3.66 0.266,-5.388c0.632,-1.727 1.774,-3.223 3.274,-4.287c1.469,-0.975 3.193,-1.494 4.956,-1.494c1.762,-0 3.486,0.519 4.955,1.494l4.13,2.359c0.596,0.366 1.304,0.507 1.996,0.399c0.572,-0.089 1.102,-0.344 1.527,-0.73c4.952,-6.783 11.003,-12.754 17.948,-17.645c12.723,-8.961 27.848,-13.874 43.397,-14.109c0.048,-0.003 0.096,-0.005 0.144,-0.008c0.087,0.001 0.176,0.001 0.264,0.002c0.089,-0.001 0.176,-0.001 0.265,-0.002c0.047,0.003 0.095,0.005 0.143,0.008c15.55,0.235 30.674,5.148 43.397,14.109c6.945,4.891 12.996,10.862 17.948,17.645c0.425,0.386 0.955,0.641 1.527,0.73c0.692,0.108 1.399,-0.033 1.996,-0.399l4.129,-2.359c1.47,-0.975 3.194,-1.494 4.957,-1.494c1.762,-0 3.486,0.519 4.955,1.494c1.5,1.064 2.641,2.56 3.274,4.287c0.632,1.728 0.724,3.606 0.265,5.388l-5.899,22.654c-0.494,1.913 -1.606,3.609 -3.163,4.826c-1.558,1.216 -3.474,1.883 -5.45,1.899l-2.124,-0.236l-22.771,-5.782c-1.687,-0.418 -3.212,-1.323 -4.387,-2.604c-1.175,-1.279 -1.948,-2.877 -2.221,-4.593c-0.238,-1.745 0.038,-3.523 0.792,-5.114c0.753,-1.593 1.954,-2.931 3.456,-3.853l3.657,-2.124c0.366,-0.242 0.679,-0.555 0.922,-0.92c0.243,-0.364 0.411,-0.774 0.494,-1.203c0.045,-0.448 -0.004,-0.901 -0.147,-1.328c-0.143,-0.427 -0.374,-0.819 -0.679,-1.15c-5.669,-6.48 -12.578,-11.759 -20.317,-15.529c-7.709,-3.752 -16.086,-5.931 -24.644,-6.411c-0.125,-0.002 -0.25,-0.004 -0.375,-0.005c-0.125,0.001 -0.25,0.003 -0.374,0.005c-8.56,0.48 -16.937,2.659 -24.644,6.411c-7.741,3.77 -14.649,9.049 -20.319,15.529c-0.305,0.331 -0.535,0.723 -0.678,1.15c-0.142,0.427 -0.193,0.88 -0.148,1.328c0.084,0.429 0.252,0.839 0.496,1.203c0.243,0.365 0.556,0.678 0.921,0.92l3.657,2.124c1.501,0.922 2.702,2.26 3.456,3.853c0.754,1.591 1.029,3.369 0.792,5.114c-0.274,1.716 -1.046,3.314 -2.221,4.593c-1.174,1.281 -2.7,2.186 -4.386,2.604l-0,0Z" style="fill:#a2c952;"/></g></g></svg>