<svg width="13" height="17" viewBox="0 0 13 17" fill="none" xmlns="http://www.w3.org/2000/svg">
	<path d="M10 6H11C11.2652 6 11.5196 6.10536 11.7071 6.29289C11.8946 6.48043 12 6.73478 12 7V15C12 15.2652 11.8946 15.5196 11.7071 15.7071C11.5196 15.8946 11.2652 16 11 16H2C1.73478 16 1.48043 15.8946 1.29289 15.7071C1.10536 15.5196 1 15.2652 1 15V7C1 6.73478 1.10536 6.48043 1.29289 6.29289C1.48043 6.10536 1.73478 6 2 6H3" stroke="#5C7A0B" stroke-width="1.5" stroke-linecap="round" stroke-linejoin="round"/>
	<path d="M6.5 1V8" stroke="#5C7A0B" stroke-width="1.5" stroke-linecap="round" stroke-linejoin="round"/>
	<path d="M4 3.5L6.5 1L9 3.5" stroke="#5C7A0B" stroke-width="1.5" stroke-linecap="round" stroke-linejoin="round"/>
</svg>
