<svg width="329" height="60" viewBox="0 0 329 60" fill="none" xmlns="http://www.w3.org/2000/svg">
<path d="M25.0461 25.2033C20.1599 24.4766 16.6067 22.764 14.5781 20.1914V38.3363C17.2166 45.8532 30.2992 45.2269 33.4069 44.9677V25.51C31.9115 25.6104 28.6102 25.7346 25.0479 25.2051L25.0461 25.2033Z" fill="#054D4E" style="fill:#054D4E;fill:color(display-p3 0.0209 0.3034 0.3073);fill-opacity:1;"/>
<path d="M13.071 38.5822V18.5293L0 26.1228V46.1958L13.0765 38.5986L13.071 38.5822Z" fill="#054D4E" style="fill:#054D4E;fill:color(display-p3 0.0209 0.3034 0.3073);fill-opacity:1;"/>
<path d="M26.0296 23.8062V11L14.7534 17.551C16.5007 21.6792 21.5363 23.253 26.0296 23.8062Z" fill="#054D4E" style="fill:#054D4E;fill:color(display-p3 0.0209 0.3034 0.3073);fill-opacity:1;"/>
<path d="M55.7336 20.235H46.9126V14.6973H70.8722V20.235H62.0512V42.9974H55.7336V20.235Z" fill="#054D4E" style="fill:#054D4E;fill:color(display-p3 0.0209 0.3034 0.3073);fill-opacity:1;"/>
<path d="M82.0941 26.9978C79.3043 26.9978 76.5144 29.1723 76.5144 35.2851V42.9974H70.5239V21.7066H76.5144V25.3984C77.4985 23.1015 80.2884 21.3779 82.8317 21.3779C83.2827 21.3779 83.6515 21.3779 84.0623 21.4601V27.2041C83.405 27.0818 82.7496 26.9996 82.0923 26.9996L82.0941 26.9978Z" fill="#054D4E" style="fill:#054D4E;fill:color(display-p3 0.0209 0.3034 0.3073);fill-opacity:1;"/>
<path d="M94.9782 38.3215C97.0287 38.3215 98.5478 37.4195 98.9988 35.9004H104.99C104.332 40.5782 100.312 43.326 94.7737 43.326C87.512 43.326 83.9424 37.6642 83.9424 32.331C83.9424 26.9978 87.1432 21.3779 94.4048 21.3779C101.666 21.3779 105.114 26.9978 105.114 31.922C105.114 32.9061 105.032 33.6857 105.032 33.9322H89.893C90.386 36.7622 92.232 38.3215 94.98 38.3215H94.9782ZM90.0135 29.6233H98.63C98.4657 27.4086 96.9885 25.8493 94.4048 25.8493C92.148 25.8493 90.5887 27.1621 90.0154 29.6233H90.0135Z" fill="#054D4E" style="fill:#054D4E;fill:color(display-p3 0.0209 0.3034 0.3073);fill-opacity:1;"/>
<path d="M117.726 38.3215C119.776 38.3215 121.295 37.4195 121.746 35.9004H127.737C127.08 40.5782 123.059 43.326 117.521 43.326C110.26 43.326 106.69 37.6642 106.69 32.331C106.69 26.9978 109.891 21.3779 117.152 21.3779C124.414 21.3779 127.861 26.9978 127.861 31.922C127.861 32.9061 127.779 33.6857 127.779 33.9322H112.641C113.134 36.7622 114.98 38.3215 117.728 38.3215H117.726ZM112.761 29.6233H121.378C121.213 27.4086 119.736 25.8493 117.152 25.8493C114.896 25.8493 113.336 27.1621 112.763 29.6233H112.761Z" fill="#054D4E" style="fill:#054D4E;fill:color(display-p3 0.0209 0.3034 0.3073);fill-opacity:1;"/>
<path d="M141.807 26.9978C139.017 26.9978 136.227 29.1723 136.227 35.2851V42.9974H130.237V21.7066H136.227V25.3984C137.211 23.1015 140.001 21.3779 142.545 21.3779C142.996 21.3779 143.364 21.3779 143.775 21.4601V27.2041C143.118 27.0818 142.462 26.9996 141.805 26.9996L141.807 26.9978Z" fill="#054D4E" style="fill:#054D4E;fill:color(display-p3 0.0209 0.3034 0.3073);fill-opacity:1;"/>
<path d="M145.785 13.3555H152.184V19.0392H145.785V13.3555ZM145.947 21.7067H151.938V42.9994H145.947V21.7067Z" fill="#054D4E" style="fill:#054D4E;fill:color(display-p3 0.0209 0.3034 0.3073);fill-opacity:1;"/>
<path d="M155.119 21.7066H161.109V24.6187C162.422 22.6907 164.801 21.3779 167.674 21.3779C172.352 21.3779 175.51 24.4143 175.51 29.0902V42.9974H169.479V30.6494C169.479 28.3105 168.044 26.7111 165.787 26.7111C162.751 26.7111 161.109 29.2143 161.109 33.6437V42.9974H155.119V21.7066Z" fill="#054D4E" style="fill:#054D4E;fill:color(display-p3 0.0209 0.3034 0.3073);fill-opacity:1;"/>
<path d="M177.789 43.2037H183.82C184.148 45.1317 185.912 46.2802 188.415 46.2802C191.205 46.2802 192.969 44.6808 192.969 42.1374V39.6762C191.943 40.9488 189.933 41.8909 187.471 41.8909C181.44 41.8909 177.502 37.9107 177.502 31.6755C177.502 25.4404 181.44 21.3779 187.307 21.3779C189.81 21.3779 191.821 22.3219 192.969 23.757V21.7066H199V41.5221C199 47.3063 194.775 50.9999 188.415 50.9999C182.631 50.9999 178.528 48.3324 177.789 43.2055V43.2037ZM193.298 31.6755C193.298 28.599 191.41 26.5066 188.457 26.5066C185.505 26.5066 183.617 28.557 183.617 31.6755C183.617 34.794 185.505 36.8042 188.457 36.8042C191.41 36.8042 193.298 34.7538 193.298 31.6755Z" fill="#054D4E" style="fill:#054D4E;fill:color(display-p3 0.0209 0.3034 0.3073);fill-opacity:1;"/>
<path d="M213.114 43.1016V14.9826H221.031C228.909 14.9826 234.915 20.2476 234.915 29.0226C234.915 37.8366 228.909 43.1016 221.031 43.1016H213.114ZM221.148 40.6836C226.842 40.6836 232.185 37.1346 232.185 29.0226C232.185 20.9496 226.842 17.4006 221.148 17.4006H215.766V40.6836H221.148ZM237.907 32.9616C237.907 26.9556 241.768 22.5486 247.54 22.5486C252.805 22.5486 256.432 26.4096 256.354 31.8696C256.354 32.4546 256.276 33.0786 256.276 33.0786H240.481C240.52 38.1486 243.367 41.1516 247.54 41.1516C250.699 41.1516 253.39 39.5916 253.858 36.7836H256.198C255.418 41.1516 251.83 43.4136 247.54 43.4136C241.768 43.4136 237.907 39.0066 237.907 32.9616ZM240.637 30.8946H253.741C253.507 27.3846 251.284 24.8106 247.54 24.8106C243.796 24.8106 241.3 27.1896 240.637 30.8946ZM266.84 43.4136C262.082 43.4136 259.04 40.3716 258.806 36.6276H261.341C261.497 39.0846 263.486 41.1516 266.84 41.1516C269.765 41.1516 271.676 39.5136 271.676 37.6416C271.676 35.5746 270.272 34.6776 268.283 34.1316L264.5 33.0786C261.926 32.3766 259.703 31.1286 259.703 27.9306C259.703 24.7326 262.472 22.5486 266.45 22.5486C270.467 22.5486 273.314 24.8496 273.899 28.3986H271.325C271.052 26.2536 269.18 24.8106 266.45 24.8106C263.915 24.8106 262.277 26.0196 262.277 27.9306C262.277 29.3736 263.408 30.3876 265.163 30.8556L268.985 31.8696C271.754 32.6106 274.25 33.7026 274.25 37.6416C274.25 41.1516 271.325 43.4136 266.84 43.4136ZM278.386 43.1016V22.8606H280.843V43.1016H278.386ZM278.074 18.8436V15.0216H281.155V18.8436H278.074ZM294.923 50.7066C289.385 50.7066 286.226 48.3666 285.836 44.0376H288.332C288.644 46.8066 290.828 48.4446 294.923 48.4446C299.174 48.4446 301.514 46.2996 301.514 42.2046V39.1626C300.578 40.9956 297.77 42.2436 294.65 42.2436C288.449 42.2436 285.095 37.8756 285.095 32.4156C285.095 26.9166 288.449 22.5486 294.611 22.5486C297.38 22.5486 300.227 23.9526 301.514 25.9416V22.8606H303.971V42.0096C303.971 47.6646 300.812 50.7066 294.923 50.7066ZM294.728 39.9816C298.979 39.9816 301.748 37.0176 301.748 32.4156C301.748 27.8526 298.979 24.8106 294.728 24.8106C290.438 24.8106 287.669 27.8136 287.669 32.4156C287.669 37.0176 290.438 39.9816 294.728 39.9816ZM309.54 43.1016V22.8606H311.997V27.1116C313.596 24.2646 316.209 22.5486 319.251 22.5486C323.385 22.5486 326.388 25.3566 326.388 29.6076V43.1016H323.931V29.8806C323.931 26.9556 322.059 24.8106 318.939 24.8106C314.805 24.8106 311.997 28.4766 311.997 34.2096V43.1016H309.54Z" fill="#00A158" style="fill:#00A158;fill:color(display-p3 0.0000 0.6314 0.3451);fill-opacity:1;"/>
</svg>
